<?xml version="1.0" encoding="UTF-8"?>
<svg width="1200pt" height="1200pt" version="1.1" viewBox="0 0 1200 1200" xmlns="http://www.w3.org/2000/svg">
 <g fill="#fff">
  <path d="m1049.3 595.44c-2.8789-181.68-103.68-352.32-264.24-438.96-159.12-85.68-358.56-79.922-510.96 18-149.76 96-241.2 268.32-233.04 446.4 8.1602 178.8 112.32 345.12 272.16 427.2 79.68 41.039 169.92 60.961 259.44 55.68 105.36-6.2383 204.48-44.641 287.28-109.68 18.719-14.879 36.238-30.961 52.559-48.48 13.441-14.16 13.922-36.961 0-50.879-13.441-13.441-37.441-14.16-50.879 0-62.879 66.719-139.44 110.4-230.16 129.36-24.719 5.2812-39.602 6.9609-65.762 8.1602-19.922 0.96094-39.84 0.48047-59.762-1.1992-5.5195-0.48047-10.801-0.96094-16.32-1.6797-1.4414-0.23828-7.1992-0.96094-0.23828 0-2.1602-0.23828-4.3203-0.71875-6.4805-0.96094-10.559-1.6797-21.359-3.6016-31.68-6-19.68-4.5586-39.359-10.32-58.32-17.281-4.0781-1.4414-7.9219-2.8789-11.762-4.5586 0.23828 0-9.3594-3.8398-4.5586-1.9219 4.8008 2.1602-4.5586-2.1602-4.3203-1.9219-9.1211-4.0781-18.238-8.3984-27.121-13.199-17.281-9.1211-33.84-19.199-49.68-30.238-3.8398-2.6406-7.6797-5.5195-11.52-8.1602-1.4414-0.96094-6.9609-5.2812-1.4414-0.96094-1.6797-1.1992-3.3594-2.6406-5.0391-3.8398-8.1602-6.4805-16.078-13.441-23.762-20.398-14.398-13.199-27.84-27.121-40.32-41.762-3.1211-3.6016-6-7.1992-9.1211-11.039-1.1992-1.6797-2.6406-3.3594-3.8398-5.0391 4.3203 5.5195 0 0-0.96094-1.4414-5.7617-8.1602-11.762-16.32-17.039-24.719-11.039-16.801-20.879-34.559-29.52-52.801-1.9219-3.8398-3.6016-7.6797-5.2812-11.52 0.23828 0.23828-4.0781-9.3594-1.9219-4.5586 1.9219 4.8008-1.9219-5.0391-1.9219-4.5586-3.8398-9.6016-7.1992-19.199-10.32-29.039-6.2383-19.199-11.039-38.879-14.641-58.801-0.96094-5.5195-1.9219-11.039-2.6406-16.32 0.96094 7.1992-0.48047-4.8008-0.71875-6.9609-1.1992-11.281-2.1602-22.32-2.3984-33.602-0.71875-20.398-0.23828-41.039 1.6797-61.441 0.48047-4.8008 0.96094-9.8398 1.6797-14.641-0.96094 7.6797 0.96094-6 1.1992-8.1602 1.6797-10.078 3.6016-20.16 6-30 4.5586-19.68 10.559-39.121 17.52-58.078 1.6797-4.5586 3.3594-8.8789 5.2812-13.199 2.3984-5.7617-3.6016 7.6797 0.71875-1.6797 0.96094-1.9219 1.6797-3.8398 2.6406-5.7617 4.0781-9.1211 8.6406-18 13.199-26.879 9.1211-17.039 19.441-33.602 30.48-49.441 3.1211-4.3203 6.2383-8.3984 9.3594-12.719-4.0781 5.5195 2.6406-3.3594 4.0781-5.0391 6.7188-8.1602 13.441-16.078 20.641-23.762 13.441-14.641 28.078-28.32 43.441-41.039 3.1211-2.6406 6.4805-5.2812 9.8398-7.9219 5.2812-4.3203 1.4414-0.96094 0.23828-0.23828 2.1602-1.6797 4.3203-3.1211 6.2383-4.8008 8.1602-6 16.32-11.52 24.719-17.039 17.039-10.801 34.801-20.641 53.039-29.039 4.3203-1.9219 8.6406-4.0781 13.199-6 5.7617-2.3984-7.9219 2.8789 1.6797-0.71875 1.9219-0.71875 4.0781-1.6797 6-2.3984 10.078-3.8398 20.16-7.4414 30.48-10.559 18.719-5.7617 37.922-10.32 57.359-13.68 2.6406-0.48047 5.5195-0.96094 8.1602-1.4414 1.6797-0.23828 9.1211-1.4414 1.9219-0.48047 4.3203-0.48047 8.8789-1.1992 13.441-1.4414 11.281-1.1992 22.32-1.9219 33.602-2.1602 20.879-0.71875 42 0 62.879 2.1602 2.3984 0.23828 13.922 1.6797 6.7188 0.71875 5.2812 0.71875 10.801 1.6797 16.078 2.3984 10.078 1.6797 20.16 3.8398 30 6.2383 19.199 4.5586 37.922 10.559 56.398 17.52 1.9219 0.71875 3.8398 1.4414 6 2.3984-0.23828 0 9.3594 3.8398 4.5586 1.9219-4.8008-2.1602 4.5586 2.1602 4.3203 1.9219 1.9219 0.96094 3.8398 1.6797 5.7617 2.6406 9.6016 4.3203 18.961 9.1211 28.078 14.16 17.039 9.3594 33.359 19.68 49.199 31.199 1.6797 1.1992 12.238 9.1211 6.4805 4.8008 3.8398 2.8789 7.4414 5.7617 11.039 8.8789 7.6797 6.2383 15.121 12.961 22.32 19.68 14.398 13.68 28.078 28.32 40.801 43.68 2.6406 3.3594 5.2812 6.4805 7.9219 9.8398-4.3203-5.5195 0 0 0.96094 1.4414 1.4414 2.1602 3.1211 4.3203 4.5586 6.4805 5.7617 8.1602 11.281 16.559 16.801 24.961 10.32 16.559 19.68 34.078 27.84 51.84 1.1992 2.3984 2.1602 4.8008 3.3594 7.1992 0.71875 1.6797 3.3594 8.1602 0.71875 1.6797 1.6797 4.0781 3.1211 7.9219 4.8008 12 3.8398 10.078 7.1992 20.398 10.32 30.719 5.7617 19.441 10.32 39.121 13.68 59.281 0.48047 2.6406 0.96094 5.5195 1.1992 8.1602-0.23828-1.4414-0.71875-6.7188 0 0.48047 0.71875 5.0391 1.1992 10.078 1.6797 15.121 1.1992 12.719 1.6797 25.441 1.9219 38.16 0.23828 18.719 16.32 36.961 36 36 19.453-1.1992 36.496-16.078 36.016-36.238z"/>
  <path d="m831.6 527.76c55.68 34.801 111.36 69.602 167.04 104.4 16.801 10.559 39.121 3.1211 49.199-12.961 34.801-55.68 69.602-111.36 104.4-167.04 10.32-16.559 3.6016-39.602-12.961-49.199-17.281-10.078-38.879-3.6016-49.199 12.961-34.801 55.68-69.602 111.36-104.4 167.04 16.32-4.3203 32.879-8.6406 49.199-12.961-55.68-34.801-111.36-69.602-167.04-104.4-16.559-10.32-39.602-3.6016-49.199 12.961-10.082 17.277-3.6016 38.879 12.961 49.199z"/>
 </g>
</svg>
